<?xml version="1.0" standalone="no"?>
<!DOCTYPE svg PUBLIC "-//W3C//DTD SVG 20010904//EN"
 "http://www.w3.org/TR/2001/REC-SVG-20010904/DTD/svg10.dtd">
<svg version="1.0" xmlns="http://www.w3.org/2000/svg"
 width="512.000000pt" height="512.000000pt" viewBox="0 0 512.000000 512.000000"
 preserveAspectRatio="xMidYMid meet">

<g transform="translate(0.000000,512.000000) scale(0.100000,-0.100000)"
fill="#000000" stroke="none">
<path d="M1870 2796 l0 -246 75 0 75 0 0 178 c0 125 4 182 12 190 8 8 60 12
169 12 l158 0 35 -34 c35 -32 36 -36 36 -104 0 -65 -2 -73 -29 -100 -25 -24
-40 -30 -98 -35 -37 -4 -94 -7 -125 -7 -57 0 -58 -1 -83 -41 -15 -22 -25 -45
-22 -52 5 -15 320 -10 365 6 26 9 35 9 41 -1 7 -12 115 -21 126 -10 8 8 -16
72 -32 84 -11 9 -11 17 -2 40 11 25 13 27 17 9 2 -11 7 -24 11 -30 4 -5 15
-31 25 -57 10 -27 24 -48 31 -48 14 0 39 58 81 187 27 84 48 109 59 70 10 -33
75 -209 88 -234 9 -21 17 -23 88 -23 l77 0 26 55 c14 31 26 59 26 64 0 5 9 30
19 57 11 27 36 94 56 149 20 55 41 108 46 117 21 40 12 48 -55 48 -45 0 -67
-4 -77 -16 -7 -8 -30 -65 -51 -126 -42 -125 -60 -168 -69 -168 -8 0 -23 34
-54 120 -31 87 -37 102 -58 153 l-17 37 -64 0 c-39 0 -67 -5 -73 -12 -6 -7
-30 -70 -54 -140 -23 -70 -47 -124 -51 -122 -4 3 -8 22 -8 43 0 81 -57 172
-129 205 -43 19 -65 21 -318 24 l-273 3 0 -245z m670 -186 c0 -5 -8 -10 -17
-10 -15 0 -16 2 -3 10 19 12 20 12 20 0z"/>
<path d="M2350 2880 c0 -5 5 -22 11 -37 20 -50 27 -68 34 -88 6 -19 7 -19 16
-2 12 20 1 107 -12 107 -5 0 -9 7 -9 15 0 8 -9 15 -20 15 -11 0 -20 -4 -20
-10z"/>
<path d="M325 2368 c-3 -8 -4 -72 -3 -144 l3 -129 40 0 40 0 5 110 5 110 93 3
c91 3 93 2 122 -27 33 -33 37 -58 15 -100 -17 -33 -39 -41 -117 -41 -47 0 -60
-4 -72 -22 -8 -12 -13 -25 -10 -30 3 -4 43 -8 89 -8 145 0 198 37 199 140 1
62 -16 98 -61 127 -36 24 -340 34 -348 11z"/>
<path d="M795 2359 c-3 -13 -4 -78 -3 -144 l3 -120 35 0 35 0 5 100 c3 55 9
106 13 113 13 19 161 16 181 -4 19 -18 20 -28 6 -55 -9 -15 -22 -19 -70 -19
-48 0 -61 -4 -70 -19 -17 -33 -12 -41 29 -41 30 0 50 -9 89 -40 40 -32 58 -40
91 -40 23 0 41 3 41 8 0 4 -16 20 -35 35 -42 33 -43 46 -10 77 38 35 35 97 -6
136 l-30 29 -149 4 -149 3 -6 -23z"/>
<path d="M1254 2367 c-2 -7 -3 -71 -2 -143 l3 -129 35 0 c34 0 35 1 38 45 5
65 12 70 107 70 67 0 84 3 89 16 11 29 -4 34 -94 34 -92 0 -106 6 -95 40 6 18
15 20 115 20 99 0 110 2 120 20 6 11 8 25 5 30 -10 16 -314 13 -321 -3z"/>
<path d="M1778 2368 c-26 -22 -150 -260 -140 -270 5 -5 25 -8 43 -6 32 3 37 9
88 106 29 56 57 102 62 102 13 0 61 -79 54 -90 -4 -6 -19 -10 -34 -10 -28 0
-61 -26 -61 -48 0 -8 22 -12 66 -12 59 0 68 -3 86 -25 15 -19 29 -25 59 -25
21 0 39 3 39 6 0 6 -20 44 -107 204 -38 69 -51 80 -98 80 -22 0 -48 -6 -57
-12z"/>
<path d="M2107 2367 c-15 -11 -17 -29 -15 -142 l3 -130 40 0 40 0 3 85 c2 47
7 89 11 93 5 5 24 -34 42 -85 29 -78 38 -94 58 -96 50 -7 66 5 86 65 10 32 25
73 33 92 21 52 33 21 30 -74 l-3 -80 43 -3 42 -3 0 139 c0 156 2 152 -74 152
-40 0 -76 -21 -76 -45 0 -13 -51 -139 -60 -148 -6 -7 -41 65 -80 167 -8 23
-15 26 -58 26 -26 0 -56 -6 -65 -13z"/>
<path d="M3285 2370 c-3 -5 -13 -10 -21 -10 -9 0 -21 -6 -28 -12 -18 -20 -46
-84 -46 -108 0 -37 32 -120 46 -120 8 0 14 -4 14 -10 0 -6 38 -10 95 -10 92 0
97 1 120 28 13 15 27 41 31 57 3 17 11 36 17 43 7 9 7 16 -1 24 -7 7 -12 21
-12 33 -1 32 -46 78 -70 70 -14 -5 -20 -2 -20 9 0 13 -12 16 -59 16 -33 0 -63
-4 -66 -10z m122 -37 c35 -19 63 -64 63 -99 0 -45 -43 -104 -75 -104 -8 0 -24
-6 -35 -12 -15 -10 -22 -10 -32 0 -6 6 -20 12 -31 12 -24 0 -39 17 -55 61 -16
48 -6 91 30 128 35 36 88 42 135 14z"/>
<path d="M2589 2343 c5 -10 14 -31 21 -48 20 -48 42 -99 51 -117 5 -10 9 -26
9 -36 0 -29 21 -42 65 -42 39 0 41 1 58 49 9 27 17 55 17 63 0 18 32 48 51 48
8 0 20 -15 27 -32 7 -18 18 -41 23 -50 5 -10 9 -31 9 -48 0 -29 1 -30 48 -30
51 0 72 12 72 42 0 10 5 18 10 18 6 0 10 13 10 29 0 16 7 34 15 41 8 7 15 25
15 41 0 16 4 29 9 29 5 0 11 14 13 30 3 23 1 30 -12 30 -25 0 -39 -21 -33 -50
4 -22 1 -28 -17 -33 -16 -4 -20 -11 -16 -25 4 -12 0 -26 -9 -35 -8 -9 -15 -27
-15 -41 0 -22 -4 -26 -30 -26 -25 0 -30 4 -30 25 0 25 -2 32 -34 92 -9 17 -16
39 -16 48 0 37 -56 61 -77 33 -5 -7 -17 -38 -27 -68 -10 -30 -21 -64 -26 -75
-4 -11 -11 -28 -14 -37 -3 -10 -15 -18 -26 -18 -11 0 -23 8 -26 18 -3 9 -10
25 -15 34 -5 10 -9 27 -9 39 0 11 -7 27 -15 35 -8 9 -15 24 -15 35 0 26 -23
49 -49 49 -17 0 -19 -4 -12 -17z m141 -213 c0 -5 -7 -10 -16 -10 -8 0 -12 5
-9 10 3 6 10 10 16 10 5 0 9 -4 9 -10z"/>
<path d="M3582 2230 l1 -130 28 0 28 0 3 113 3 112 104 3 c118 3 131 -3 131
-58 0 -44 -9 -50 -85 -50 -34 0 -57 -5 -65 -15 -11 -13 -7 -15 24 -15 36 0 59
-13 104 -62 18 -20 35 -28 60 -28 l35 0 -34 23 c-45 30 -52 72 -15 89 22 9 26
18 26 52 -1 29 -8 49 -25 69 l-24 27 -150 0 -150 0 1 -130z"/>
<path d="M4055 2230 l0 -130 29 0 28 0 -4 65 c-3 45 0 65 7 65 23 0 75 -32 75
-46 0 -8 5 -14 11 -14 12 0 59 -50 59 -62 0 -5 21 -8 48 -8 l47 0 -42 28 c-24
15 -43 31 -43 35 0 10 -19 28 -45 43 -41 23 -26 51 65 127 l32 27 -31 0 c-23
0 -44 -13 -91 -60 -34 -34 -67 -59 -74 -57 -6 2 -12 29 -14 60 -3 54 -4 57
-30 57 l-27 0 0 -130z"/>
<path d="M4454 2347 c-30 -34 -25 -107 7 -107 11 0 19 -5 19 -10 0 -7 39 -10
108 -9 128 3 152 -3 152 -37 0 -47 -18 -54 -147 -54 -89 0 -124 -4 -139 -15
-17 -13 -4 -14 122 -15 154 0 184 7 203 52 10 22 10 34 0 57 -13 28 -17 30
-97 37 -46 3 -101 4 -122 1 -48 -6 -83 19 -78 55 3 22 6 23 120 26 91 2 117 6
122 17 5 13 -15 15 -127 15 -92 -1 -135 -4 -143 -13z"/>
<path d="M1382 2127 c-12 -13 -19 -27 -15 -30 3 -4 48 -7 99 -7 82 0 95 2 104
19 19 37 13 41 -78 41 -80 0 -91 -2 -110 -23z"/>
</g>
</svg>
